<?xml version="1.0" standalone="no"?>
<!DOCTYPE svg PUBLIC "-//W3C//DTD SVG 20010904//EN"
 "http://www.w3.org/TR/2001/REC-SVG-20010904/DTD/svg10.dtd">
<svg version="1.0" xmlns="http://www.w3.org/2000/svg"
 width="1920.000000pt" height="1080.000000pt" viewBox="0 0 1920.000000 1080.000000"
 preserveAspectRatio="xMidYMid meet">

<g transform="translate(0.000000,1080.000000) scale(0.100000,-0.100000)"
fill="#000000" stroke="none">
<path d="M10981 10674 c0 -11 3 -14 6 -6 3 7 2 16 -1 19 -3 4 -6 -2 -5 -13z"/>
<path d="M10901 10434 c0 -11 3 -14 6 -6 3 7 2 16 -1 19 -3 4 -6 -2 -5 -13z"/>
<path d="M10941 10434 c0 -11 3 -14 6 -6 3 7 2 16 -1 19 -3 4 -6 -2 -5 -13z"/>
<path d="M10821 10194 c0 -11 3 -14 6 -6 3 7 2 16 -1 19 -3 4 -6 -2 -5 -13z"/>
<path d="M10455 9120 c3 -5 8 -10 11 -10 2 0 4 5 4 10 0 6 -5 10 -11 10 -5 0
-7 -4 -4 -10z"/>
<path d="M10417 9010 c-3 -11 -1 -20 4 -20 5 0 9 9 9 20 0 11 -2 20 -4 20 -2
0 -6 -9 -9 -20z"/>
<path d="M10140 8160 c0 -5 5 -10 11 -10 5 0 7 5 4 10 -3 6 -8 10 -11 10 -2 0
-4 -4 -4 -10z"/>
<path d="M10480 8119 c0 -5 5 -7 10 -4 6 3 10 8 10 11 0 2 -4 4 -10 4 -5 0
-10 -5 -10 -11z"/>
<path d="M10480 7906 c-34 -102 -58 -191 -54 -197 4 -7 3 -9 -3 -6 -13 8 -85
-214 -77 -239 4 -12 3 -15 -3 -7 -6 9 -18 -16 -37 -74 -16 -47 -29 -91 -31
-97 -1 -6 -7 -24 -14 -39 -6 -16 -9 -33 -5 -38 3 -5 1 -9 -4 -9 -11 0 -33 -70
-25 -83 3 -6 1 -7 -4 -4 -11 7 -29 -54 -24 -80 1 -7 -3 -13 -10 -13 -7 0 -9
-10 -5 -27 4 -16 3 -23 -2 -16 -11 17 -56 -118 -50 -150 4 -19 1 -24 -10 -19
-11 4 -13 1 -7 -7 4 -7 3 -16 -2 -20 -6 -3 -13 -17 -17 -31 -6 -19 -5 -21 3
-10 7 9 11 10 11 3 0 -7 -6 -16 -13 -20 -8 -4 -21 -30 -30 -57 -13 -41 -13
-54 -3 -75 8 -16 10 -36 5 -51 -6 -23 -7 -23 -8 -3 -1 12 -6 25 -13 29 -6 4
-8 3 -4 -4 3 -6 0 -14 -7 -19 -16 -9 -49 -101 -42 -113 3 -5 0 -10 -6 -12 -6
-2 -11 -16 -11 -31 0 -15 -3 -27 -7 -27 -3 0 -7 -16 -8 -35 -2 -19 1 -35 7
-35 5 0 14 -9 20 -20 7 -14 7 -20 0 -20 -5 0 -10 7 -10 15 0 8 -7 15 -15 15
-8 0 -15 6 -16 13 0 6 -4 3 -9 -8 -11 -26 -12 -44 -1 -27 5 8 6 -9 3 -40 -5
-62 -7 -65 -26 -49 -11 9 -15 7 -19 -11 -4 -13 -2 -27 3 -32 7 -7 10 -5 10 4
0 7 2 11 5 8 3 -3 3 -13 -1 -22 -5 -14 -9 -14 -22 -4 -13 11 -15 10 -10 -4 4
-9 0 -24 -7 -35 -19 -24 -19 -38 0 -19 8 8 15 19 15 24 0 6 8 9 18 7 9 -2 20
-4 25 -4 4 -1 7 -19 7 -41 l0 -40 60 0 60 0 0 40 0 40 40 0 40 0 0 40 0 40 40
0 40 0 0 40 c0 22 5 40 10 40 6 0 10 -33 10 -80 0 -44 4 -80 9 -80 13 0 71 56
71 69 0 6 4 11 9 11 21 0 71 59 71 84 0 24 4 26 40 26 36 0 40 3 40 25 0 23 4
25 40 25 l40 0 0 -40 c0 -29 4 -40 15 -40 11 0 15 11 15 40 0 29 -4 40 -15 40
-12 0 -15 13 -15 55 l0 55 40 0 40 0 0 -55 0 -55 40 0 40 0 0 40 c0 22 4 40
10 40 5 0 20 11 33 24 29 28 67 25 67 -5 0 -14 7 -19 25 -19 23 0 25 -4 25
-40 0 -29 4 -40 15 -40 11 0 15 11 15 40 l0 40 40 0 40 0 0 40 c0 36 3 40 25
40 15 0 25 -6 25 -14 0 -7 11 -21 25 -30 15 -10 25 -26 25 -40 0 -13 7 -26 15
-30 10 -4 15 1 15 14 0 11 4 20 9 20 13 0 71 56 71 69 0 6 18 11 40 11 l40 0
0 40 c0 29 4 40 15 40 8 0 15 6 15 13 0 8 3 8 9 -2 5 -8 16 -11 25 -8 10 4 16
1 16 -8 0 -8 7 -15 16 -15 22 0 47 -28 40 -45 -3 -9 0 -15 9 -15 11 0 15 11
15 40 0 29 4 40 15 40 8 0 15 5 15 10 0 6 7 10 15 10 8 0 15 -4 15 -10 0 -5 5
-10 10 -10 6 0 10 20 10 44 0 39 2 44 20 39 27 -7 25 13 -5 49 -24 29 -26 56
-2 41 7 -5 26 -8 42 -8 26 0 30 -4 29 -27 0 -20 3 -25 12 -17 8 6 14 5 18 -7
8 -21 8 -24 -5 -24 -5 0 -7 5 -4 10 9 15 -1 12 -14 -4 -10 -12 -7 -14 15 -11
30 3 69 -29 57 -48 -4 -7 0 -7 10 2 22 18 22 3 0 -23 -18 -21 -18 -21 3 -3 26
22 41 22 23 0 -9 -10 -9 -14 -2 -10 15 9 56 -29 48 -43 -9 -15 5 -31 18 -23
19 12 36 12 44 1 3 -6 1 -8 -5 -4 -6 3 -14 1 -17 -5 -5 -7 1 -9 16 -7 18 2 24
-2 24 -17 0 -11 6 -19 13 -17 15 3 16 -10 1 -25 -8 -8 -7 -13 2 -18 7 -5 10
-4 5 3 -12 20 11 22 29 2 10 -11 25 -20 34 -20 11 0 3 12 -22 36 -21 19 -43
32 -49 28 -7 -5 -9 -2 -6 8 8 18 -90 115 -110 110 -8 -2 -11 1 -7 8 9 15 -15
42 -33 35 -9 -3 -12 0 -9 9 7 17 -11 36 -28 30 -8 -3 -12 2 -12 12 1 10 -9 24
-23 31 -14 7 -21 13 -16 13 5 0 3 7 -4 15 -7 8 -16 12 -21 9 -5 -3 -9 1 -9 9
0 8 -24 37 -54 66 -53 49 -75 64 -60 39 4 -7 3 -8 -5 -4 -6 4 -8 12 -5 18 6 9
-52 78 -66 78 -3 0 -6 -9 -7 -21 -2 -18 0 -19 15 -7 15 11 16 11 4 -4 -10 -13
-10 -17 0 -21 7 -3 2 -4 -12 -3 -26 3 -34 29 -16 54 6 9 3 19 -9 30 -10 9 -15
12 -12 7 6 -11 -58 -14 -68 -3 -3 3 7 5 21 4 15 0 29 4 31 9 2 6 -31 44 -73
85 -42 41 -74 70 -71 64 7 -12 -40 -11 -51 2 -4 4 1 4 10 1 27 -10 32 12 9 37
-20 21 -21 33 -21 181 0 87 -2 156 -5 153 -4 -4 -532 519 -554 549 -3 5 -13
14 -23 21 -14 12 -22 -6 -78 -172z m794 -855 c2 -3 -11 -6 -29 -6 -18 0 -31 3
-29 6 2 4 15 7 29 7 14 0 27 -3 29 -7z m-1042 -28 c-3 -16 -7 -22 -10 -15 -4
13 4 42 11 42 2 0 2 -12 -1 -27z m1209 -140 c13 -16 12 -17 -3 -4 -17 13 -22
21 -14 21 2 0 10 -8 17 -17z m-1294 -55 c-3 -8 -6 -5 -6 6 -1 11 2 17 5 13 3
-3 4 -12 1 -19z m1053 -9 c0 -11 -4 -17 -10 -14 -5 3 -10 13 -10 21 0 8 5 14
10 14 6 0 10 -9 10 -21z m316 -11 l29 -33 -31 28 c-30 27 -48 28 -37 1 3 -9
-2 -14 -15 -14 -14 0 -19 6 -18 18 2 9 8 17 14 17 6 0 14 3 18 8 10 9 6 11 40
-25z m-1366 -38 c0 -5 -4 -10 -10 -10 -5 0 -10 5 -10 10 0 6 5 10 10 10 6 0
10 -4 10 -10z m1402 -15 c11 -15 10 -25 -4 -25 -6 0 -8 3 -5 7 4 3 -1 12 -11
20 -13 10 -14 13 -2 11 8 -2 18 -7 22 -13z m-112 -125 c0 -27 -4 -50 -10 -50
-5 0 -10 9 -10 19 0 11 -6 22 -12 25 -10 5 -10 7 0 12 6 3 12 14 12 25 0 10 5
19 10 19 6 0 10 -22 10 -50z m343 -121 c-9 -9 -12 -7 -10 9 1 14 5 18 11 12 7
-7 6 -14 -1 -21z m-1223 -4 c0 -20 -5 -25 -25 -25 -31 0 -32 14 -3 34 29 20
28 21 28 -9z m-400 -15 c0 -5 -7 -10 -16 -10 -8 0 -12 5 -9 10 3 6 10 10 16
10 5 0 9 -4 9 -10z m-70 -25 c0 -8 -4 -15 -9 -15 -13 0 -22 16 -14 24 11 11
23 6 23 -9z m118 -53 c2 -7 -7 -12 -22 -12 -21 0 -26 5 -26 26 0 25 1 26 22
12 12 -8 24 -20 26 -26z m1697 8 c10 -11 16 -20 13 -20 -3 0 -13 9 -23 20 -10
11 -16 20 -13 20 3 0 13 -9 23 -20z m-1851 -82 c3 -34 4 -64 1 -66 -11 -11
-28 19 -30 53 -1 20 -5 39 -9 42 -13 13 -5 33 13 33 15 0 19 -11 25 -62z m406
2 c0 -15 -7 -20 -25 -20 -18 0 -25 5 -25 20 0 15 7 20 25 20 18 0 25 -5 25
-20z m-470 -24 c-14 -14 -22 -2 -14 18 5 14 9 15 15 4 4 -7 4 -17 -1 -22z
m100 -87 c0 -10 -7 -19 -15 -19 -9 0 -15 9 -15 25 0 18 4 23 15 19 8 -4 15
-15 15 -25z m-68 -49 c2 -19 -2 -26 -19 -28 -20 -3 -21 -1 -10 33 11 38 25 36
29 -5z"/>
<path d="M8060 7494 l0 -300 -901 -897 -902 -897 353 -350 c195 -192 358 -346
364 -343 5 3 6 1 2 -5 -8 -14 63 -84 77 -75 5 3 7 2 4 -4 -8 -12 147 -165 158
-156 4 5 5 3 2 -3 -8 -14 66 -87 78 -77 4 5 5 3 2 -3 -4 -7 0 -17 8 -24 12
-10 18 -10 30 0 12 10 13 8 10 -11 -5 -26 12 -52 28 -42 5 3 7 2 4 -4 -6 -10
52 -74 65 -70 3 1 10 -2 15 -7 5 -5 2 -6 -7 -1 -8 4 5 -13 29 -38 24 -25 48
-44 52 -42 3 3 9 -4 12 -15 3 -11 16 -24 30 -29 14 -5 28 -15 32 -21 4 -6 13
-9 19 -7 7 3 19 1 27 -3 10 -7 7 -9 -11 -8 -14 1 -34 8 -45 17 -11 8 2 -8 29
-36 27 -29 53 -50 57 -47 4 2 11 -1 15 -7 5 -8 3 -10 -7 -4 -8 4 -3 -3 11 -16
14 -13 35 -35 48 -49 13 -14 21 -20 18 -14 -3 6 4 10 17 8 12 -1 26 -3 30 -3
5 -1 5 -6 2 -12 -4 -6 -13 -8 -21 -5 -22 9 -16 -6 18 -41 23 -24 35 -30 48
-23 25 14 45 -3 24 -21 -16 -13 -17 -12 -10 6 6 16 5 18 -5 8 -18 -18 47 -86
70 -74 9 5 21 6 28 4 14 -5 6 -33 -9 -33 -6 0 -7 8 -3 18 5 14 4 15 -6 5 -18
-18 47 -86 70 -74 9 5 21 6 28 4 14 -5 6 -33 -9 -33 -6 0 -7 8 -3 18 5 13 4
14 -6 5 -10 -10 -8 -17 9 -36 21 -23 22 -31 24 -268 2 -262 6 -231 10 78 2
105 0 186 -4 180 -6 -9 -8 -9 -8 1 0 19 4 27 13 24 4 -1 3 7 -4 19 -11 21 0
38 24 39 5 0 5 5 2 10 -4 6 -11 8 -16 5 -5 -4 -12 1 -15 9 -3 9 -14 16 -24 16
-20 0 -32 -23 -24 -44 6 -17 -12 -31 -21 -16 -3 5 -1 10 5 10 6 0 8 5 4 11 -4
8 -9 7 -15 -2 -6 -10 -9 -11 -9 -1 0 19 4 27 12 25 11 -4 10 11 -1 22 -5 6
-11 36 -15 68 -5 47 -4 57 9 57 12 0 15 -13 15 -55 0 -56 6 -63 44 -49 22 8
22 74 1 74 -23 0 -18 18 10 36 14 9 25 23 25 30 0 8 4 14 9 14 5 0 23 13 40
29 26 24 31 36 31 75 0 32 5 48 15 52 10 4 15 21 15 55 0 41 4 51 25 65 14 9
25 23 25 30 0 9 11 14 30 14 28 0 30 2 30 40 0 22 5 40 10 40 6 0 10 -20 10
-45 0 -35 3 -43 15 -39 10 4 15 21 15 55 0 41 4 51 25 65 22 14 25 24 25 70 0
41 4 54 15 54 11 0 15 11 15 40 0 29 -4 40 -15 40 -22 0 -19 28 4 35 19 6 31
43 31 96 0 19 5 29 15 29 9 0 15 -9 15 -25 0 -14 4 -25 9 -25 14 0 71 50 71
63 1 7 15 21 33 32 18 11 36 29 41 40 5 11 23 29 40 40 17 11 35 30 41 43 5
12 13 22 17 22 3 0 20 12 37 26 25 21 31 33 31 65 0 37 2 39 30 39 l30 0 0 80
c0 66 -3 80 -16 80 -21 0 -13 20 14 38 21 14 22 13 22 -12 0 -22 4 -26 30 -26
l30 0 0 80 c0 47 4 80 10 80 6 0 10 -18 10 -40 0 -38 2 -40 30 -40 28 0 30 2
30 40 l0 40 40 0 40 0 0 40 c0 22 4 40 9 40 6 0 8 12 7 28 -2 15 -4 33 -5 40
0 6 -10 12 -21 12 -25 0 -26 15 -1 32 10 7 21 27 25 45 4 17 14 34 22 37 8 3
14 15 14 26 0 24 30 27 30 3 1 -26 27 -58 33 -41 2 7 8 10 12 6 4 -4 2 -15 -6
-24 -8 -10 -14 -33 -14 -52 0 -21 -6 -37 -14 -40 -11 -4 -13 5 -7 47 7 51 3
57 -28 45 -12 -4 -16 -20 -16 -54 0 -44 3 -50 30 -64 30 -15 31 -14 41 12 6
15 11 37 11 49 0 13 5 20 10 17 6 -4 8 1 4 13 -4 12 -1 25 9 33 16 13 21 35 6
25 -15 -9 -24 34 -11 50 9 11 9 15 1 15 -6 0 -11 7 -11 15 0 20 26 19 34 -2 5
-11 10 -13 17 -6 8 8 8 17 0 31 -8 15 -7 23 3 31 7 6 17 7 21 3 5 -4 5 2 0 13
-4 11 -7 28 -7 38 0 10 -4 15 -10 11 -7 -4 -8 -2 -4 5 6 9 11 9 22 0 11 -9 14
-8 14 4 0 8 -4 17 -9 19 -4 2 -12 14 -16 27 -7 24 -7 24 19 -4 14 -15 26 -23
26 -17 0 6 -7 18 -16 26 -10 11 -12 21 -6 31 8 15 10 15 22 0 11 -13 10 -14
-6 -8 -16 6 -17 5 -4 -9 18 -19 30 -5 33 42 1 16 5 30 9 30 4 0 4 7 1 17 -4
11 -3 14 5 9 7 -4 12 -3 12 3 0 5 3 18 6 28 4 12 3 14 -3 6 -6 -9 -12 -4 -20
17 -8 22 -8 29 0 27 13 -2 14 25 3 58 -5 15 -4 14 5 -2 7 -13 16 -23 22 -23 5
0 2 -12 -8 -26 -12 -18 -13 -25 -4 -22 12 4 49 86 65 143 4 16 3 17 -6 5 -9
-13 -10 -12 -7 5 2 11 9 19 16 17 9 -2 12 4 8 18 -3 11 -2 18 3 15 4 -2 8 7 8
22 0 15 5 29 11 31 14 5 15 32 0 32 -5 0 -7 -4 -4 -10 3 -5 -1 -10 -9 -10 -10
0 -13 6 -10 15 4 8 1 15 -6 15 -6 0 -9 4 -6 8 2 4 -100 115 -227 245 -206 211
-1058 1066 -1137 1142 l-30 29 0 -300z m1405 -1174 c3 -6 -1 -7 -9 -4 -18 7
-21 14 -7 14 6 0 13 -4 16 -10z m-45 -175 c0 -8 -2 -15 -4 -15 -2 0 -6 7 -10
15 -3 8 -1 15 4 15 6 0 10 -7 10 -15z m-125 -154 c3 -5 2 -12 -3 -15 -5 -3 -9
1 -9 9 0 17 3 19 12 6z m-82 -326 c4 -8 2 -17 -3 -20 -6 -4 -10 3 -10 14 0 25
6 27 13 6z m-173 -200 c0 -20 -5 -25 -25 -25 -31 0 -32 14 -3 34 29 20 28 21
28 -9z m-240 -320 c0 -20 -5 -25 -25 -25 -31 0 -32 14 -3 34 29 20 28 21 28
-9z m-80 -80 c0 -20 -5 -25 -25 -25 -31 0 -32 14 -3 34 29 20 28 21 28 -9z
m-80 -80 c0 -20 -5 -25 -25 -25 -31 0 -32 14 -3 34 29 20 28 21 28 -9z m-80
-80 c0 -20 -5 -25 -25 -25 -31 0 -32 14 -3 34 29 20 28 21 28 -9z m-80 -80 c0
-20 -5 -25 -25 -25 -31 0 -32 14 -3 34 29 20 28 21 28 -9z m-80 -95 c0 -5 -7
-10 -16 -10 -8 0 -12 5 -9 10 3 6 10 10 16 10 5 0 9 -4 9 -10z m-80 -80 c0 -5
-7 -10 -16 -10 -8 0 -12 5 -9 10 3 6 10 10 16 10 5 0 9 -4 9 -10z m-80 -80 c0
-5 -7 -10 -16 -10 -8 0 -12 5 -9 10 3 6 10 10 16 10 5 0 9 -4 9 -10z m-80 -80
c0 -5 -7 -10 -16 -10 -8 0 -12 5 -9 10 3 6 10 10 16 10 5 0 9 -4 9 -10z m-733
-215 c0 -8 -4 -12 -9 -9 -5 3 -6 10 -3 15 9 13 12 11 12 -6z m73 -49 c0 -2 -8
-10 -17 -17 -16 -13 -17 -12 -4 4 13 16 21 21 21 13z m11 -43 c13 -16 12 -17
-3 -4 -10 7 -18 15 -18 17 0 8 8 3 21 -13z m78 -49 c-9 -11 -9 -14 1 -14 8 0
10 -3 7 -6 -4 -4 -13 -1 -22 6 -12 10 -13 16 -4 26 6 8 15 11 21 8 5 -3 4 -12
-3 -20z m85 -92 c3 -5 -1 -9 -9 -9 -8 0 -12 4 -9 9 3 4 7 8 9 8 2 0 6 -4 9 -8z
m81 -71 c2 -27 -13 -38 -21 -17 -3 9 -11 13 -17 9 -6 -3 -7 -1 -3 6 4 6 13 9
19 5 7 -3 3 2 -8 11 -19 15 -19 16 4 12 17 -3 25 -11 26 -26z m245 -26 c0 -14
-3 -24 -7 -24 -25 4 -43 -3 -43 -16 0 -10 -8 -14 -22 -12 -28 5 -36 27 -9 27
11 0 31 11 45 25 14 14 28 25 31 25 3 0 5 -11 5 -25z m-166 -76 c-3 -5 -2 -16
3 -22 4 -7 0 -4 -9 6 -18 19 -15 43 3 31 5 -3 7 -10 3 -15z m80 -80 c-3 -5 -2
-16 3 -22 4 -7 0 -4 -9 6 -18 19 -15 43 3 31 5 -3 7 -10 3 -15z"/>
<path d="M11284 6465 c-7 -17 38 -65 61 -65 11 0 15 11 15 40 0 39 -1 40 -35
40 -22 0 -38 -6 -41 -15z"/>
<path d="M11942 6347 l-22 -23 23 -1 c12 0 16 1 9 4 -6 3 -9 9 -6 15 3 5 14 2
25 -8 10 -9 19 -14 19 -9 0 4 7 2 15 -5 17 -14 21 -35 5 -25 -5 3 -10 1 -10
-5 0 -7 8 -9 23 -4 22 7 22 6 3 -15 -20 -22 -19 -23 29 -25 22 -1 29 -5 27
-18 -3 -20 14 -33 24 -17 5 8 3 9 -6 4 -10 -6 -12 -4 -7 8 6 16 -15 41 -26 30
-4 -3 -7 0 -7 7 0 11 -3 11 -12 2 -19 -19 -33 -14 -15 6 16 17 15 20 -12 46
-16 15 -33 28 -38 27 -4 -1 -8 3 -8 8 0 21 -13 20 -33 -2z"/>
<path d="M11040 6340 c0 -11 7 -20 15 -20 8 0 15 6 15 14 0 8 -7 16 -15 20
-10 4 -15 -1 -15 -14z"/>
<path d="M11143 6308 c2 -7 10 -13 17 -13 7 0 15 6 18 13 2 7 -5 12 -18 12
-13 0 -20 -5 -17 -12z"/>
<path d="M10480 6200 c0 -29 4 -40 15 -40 11 0 15 11 15 40 0 29 -4 40 -15 40
-11 0 -15 -11 -15 -40z"/>
<path d="M10713 6200 c0 -25 2 -35 4 -22 2 12 2 32 0 45 -2 12 -4 2 -4 -23z"/>
<path d="M10800 6225 c0 -8 4 -15 9 -15 5 0 14 7 21 15 10 13 9 15 -9 15 -12
0 -21 -6 -21 -15z"/>
<path d="M10945 6230 c3 -5 8 -10 11 -10 2 0 4 5 4 10 0 6 -5 10 -11 10 -5 0
-7 -4 -4 -10z"/>
<path d="M12105 6190 c-14 -16 -15 -21 -4 -25 8 -2 23 -3 34 -1 11 2 27 -2 35
-8 13 -9 13 -9 2 6 -8 10 -19 16 -25 15 -6 -1 -11 3 -12 10 0 22 -12 23 -30 3z
m22 -5 c0 -8 -7 -15 -15 -15 -12 0 -12 3 -2 15 7 8 13 15 15 15 1 0 2 -7 2
-15z"/>
<path d="M10880 6170 c0 -5 5 -10 11 -10 5 0 7 5 4 10 -3 6 -8 10 -11 10 -2 0
-4 -4 -4 -10z"/>
<path d="M12175 6130 c-3 -5 -4 -10 0 -10 3 0 1 -10 -5 -22 -11 -22 -10 -22 4
-4 15 18 21 15 17 -8 -1 -5 5 -3 14 4 16 13 12 25 -8 25 -7 1 -11 6 -9 13 3
15 -5 16 -13 2z"/>
<path d="M12240 6080 c0 -5 4 -10 10 -10 5 0 7 -6 4 -13 -3 -8 3 -13 15 -13
20 0 20 1 -1 23 -24 26 -28 27 -28 13z"/>
<path d="M10400 6065 c0 -8 4 -15 9 -15 5 0 14 7 21 15 10 13 9 15 -9 15 -12
0 -21 -6 -21 -15z"/>
<path d="M9892 6047 c-12 -13 -22 -27 -22 -33 1 -5 9 1 20 14 17 20 19 21 23
5 3 -11 5 -8 6 10 1 33 0 33 -27 4z"/>
<path d="M9853 6018 c3 -9 2 -18 -2 -20 -5 -2 -12 -14 -16 -26 -6 -22 -5 -23
14 -13 22 12 23 11 25 -28 2 -36 21 -36 21 -1 0 17 -4 30 -8 30 -5 0 -5 5 -2
10 3 6 -4 23 -16 38 -12 15 -19 19 -16 10z"/>
<path d="M12260 6006 c7 -7 13 -7 20 0 6 6 3 10 -10 10 -13 0 -16 -4 -10 -10z"/>
<path d="M12304 6008 c-4 -7 -4 -10 1 -6 4 4 15 2 24 -5 14 -11 14 -10 2 6
-16 20 -18 21 -27 5z"/>
<path d="M10320 5985 c0 -8 4 -15 9 -15 5 0 14 7 21 15 10 13 9 15 -9 15 -12
0 -21 -6 -21 -15z"/>
<path d="M12339 5973 c-1 -4 -1 -12 0 -17 1 -4 -4 -15 -11 -24 -10 -12 -10
-14 -1 -8 20 12 35 44 23 51 -5 3 -11 3 -11 -2z"/>
<path d="M9822 5915 c-2 -31 14 -75 28 -75 15 0 12 16 -6 35 -9 9 -14 25 -11
35 3 11 2 22 -2 24 -4 3 -8 -6 -9 -19z"/>
<path d="M12362 5934 c3 -3 12 -6 20 -8 7 -1 20 -5 28 -10 12 -7 13 -6 3 4 -7
8 -23 15 -35 17 -12 2 -19 1 -16 -3z"/>
<path d="M12419 5863 c-18 -21 -19 -24 -3 -10 19 16 22 16 34 2 7 -9 15 -13
18 -10 3 3 12 -1 21 -8 14 -11 14 -10 3 5 -8 10 -19 16 -25 15 -6 -1 -11 3
-12 10 0 24 -12 22 -36 -4z"/>
<path d="M9805 5858 c0 -12 4 -28 8 -35 11 -17 -13 -28 -25 -12 -8 11 -8 10
-4 -4 3 -10 6 -26 6 -35 0 -12 6 -8 18 11 9 15 20 27 24 27 5 0 8 5 8 11 0 5
-5 7 -12 3 -7 -5 -9 -2 -5 8 3 9 0 24 -7 33 -11 15 -12 14 -11 -7z"/>
<path d="M9903 5860 c1 -11 5 -20 9 -20 11 0 10 28 -1 35 -6 3 -9 -4 -8 -15z"/>
<path d="M12504 5788 c-10 -13 -12 -17 -4 -11 11 10 17 9 32 -4 10 -9 18 -13
18 -8 0 4 8 1 18 -6 15 -13 16 -12 4 3 -8 10 -19 16 -25 15 -6 -1 -11 3 -12
10 0 22 -12 23 -31 1z"/>
<path d="M9822 5780 c-7 -11 -8 -20 -3 -20 9 0 24 30 18 36 -1 2 -8 -6 -15
-16z"/>
<path d="M9771 5774 c0 -11 3 -14 6 -6 3 7 2 16 -1 19 -3 4 -6 -2 -5 -13z"/>
<path d="M9796 5728 c-9 -34 -7 -50 4 -43 6 4 7 11 4 17 -4 6 0 14 7 19 10 6
11 11 3 19 -8 8 -13 5 -18 -12z"/>
<path d="M12571 5727 c-8 -10 -7 -14 2 -14 8 0 14 6 14 14 0 7 -1 13 -2 13 -2
0 -8 -6 -14 -13z"/>
<path d="M9747 5679 c4 -13 8 -18 11 -10 2 7 -1 18 -6 23 -8 8 -9 4 -5 -13z"/>
<path d="M12624 5688 c-4 -7 -4 -10 1 -6 4 4 15 2 24 -5 14 -11 14 -10 2 6
-16 20 -18 21 -27 5z"/>
<path d="M9240 5668 c0 -8 7 -15 15 -15 18 0 15 19 -3 25 -7 2 -12 -3 -12 -10z"/>
<path d="M9730 5663 c0 -7 5 -15 10 -18 6 -4 8 -16 5 -28 -5 -19 -5 -20 5 -4
8 13 7 22 -4 39 -9 12 -16 17 -16 11z"/>
<path d="M12655 5651 c-3 -5 -2 -12 3 -15 5 -3 9 1 9 9 0 17 -3 19 -12 6z"/>
<path d="M12704 5608 c-4 -7 -3 -10 1 -5 5 4 25 -7 44 -25 l36 -33 -34 38
c-40 42 -37 41 -47 25z"/>
<path d="M9721 5594 c0 -11 3 -14 6 -6 3 7 2 16 -1 19 -3 4 -6 -2 -5 -13z"/>
<path d="M9747 5583 c-3 -5 -1 -17 4 -28 7 -17 8 -17 8 8 1 27 -4 34 -12 20z"/>
<path d="M9705 5554 c5 -23 4 -26 -5 -14 -9 12 -11 12 -8 1 6 -21 25 -24 32
-6 3 9 -1 23 -10 32 -13 14 -14 13 -9 -13z"/>
<path d="M12790 5536 c0 -2 8 -10 18 -17 15 -13 16 -12 3 4 -13 16 -21 21 -21
13z"/>
<path d="M12811 5487 c-8 -10 -7 -14 2 -14 8 0 14 6 14 14 0 7 -1 13 -2 13 -2
0 -8 -6 -14 -13z"/>
<path d="M9137 5453 c-4 -3 -7 -16 -7 -27 1 -21 1 -21 15 -2 8 11 15 23 15 28
0 10 -14 11 -23 1z"/>
<path d="M9664 5429 c-1 -20 2 -26 7 -17 11 16 12 48 2 48 -5 0 -8 -14 -9 -31z"/>
<path d="M9162 5428 c5 -15 28 -23 28 -10 0 5 -7 13 -16 16 -10 4 -14 1 -12
-6z"/>
<path d="M9150 5401 c0 -7 -6 -11 -13 -8 -17 6 -16 -68 1 -85 7 -7 12 -8 12
-2 0 6 -5 15 -12 22 -9 9 -9 15 0 24 9 9 12 8 13 -7 0 -15 3 -14 10 7 7 18 7
33 0 45 -7 12 -10 13 -11 4z m7 -33 c-3 -8 -6 -5 -6 6 -1 11 2 17 5 13 3 -3 4
-12 1 -19z"/>
<path d="M9645 5392 c4 -7 1 -20 -7 -29 -9 -12 -9 -15 0 -9 7 4 12 2 12 -6 0
-7 7 -2 16 10 9 13 13 26 10 29 -3 4 -6 0 -6 -7 0 -9 -5 -7 -16 6 -8 10 -13
13 -9 6z"/>
<path d="M12830 5356 c0 -2 8 -10 18 -17 15 -13 16 -12 3 4 -13 16 -21 21 -21
13z"/>
<path d="M12813 5332 c2 -12 6 -24 10 -28 3 -4 4 4 2 16 -6 30 -16 40 -12 12z"/>
<path d="M9620 5333 c0 -15 18 -35 23 -27 3 5 -1 15 -9 22 -8 7 -14 9 -14 5z"/>
<path d="M5730 5308 c10 -15 1810 -1814 1810 -1808 0 3 -408 412 -907 910
-499 498 -905 902 -903 898z"/>
<path d="M9610 5295 c0 -8 4 -15 10 -15 5 0 7 7 4 15 -4 8 -8 15 -10 15 -2 0
-4 -7 -4 -15z"/>
<path d="M9120 5291 c0 -6 4 -13 10 -16 6 -3 7 1 4 9 -7 18 -14 21 -14 7z"/>
<path d="M12799 5273 c-13 -16 -12 -17 4 -4 9 7 17 15 17 17 0 8 -8 3 -21 -13z"/>
<path d="M9088 5273 c7 -3 16 -2 19 1 4 3 -2 6 -13 5 -11 0 -14 -3 -6 -6z"/>
<path d="M12763 5255 c0 -8 4 -12 9 -9 5 3 6 10 3 15 -9 13 -12 11 -12 -6z"/>
<path d="M9050 5253 c1 -5 10 -19 21 -32 22 -26 23 -26 50 22 10 18 9 18 -15
2 -24 -16 -26 -16 -32 -1 -6 16 -24 23 -24 9z"/>
<path d="M12720 5246 c0 -2 8 -10 18 -17 15 -13 16 -12 3 4 -13 16 -21 21 -21
13z"/>
<path d="M13416 5232 c-3 -5 1 -9 9 -9 8 0 12 4 9 9 -3 4 -7 8 -9 8 -2 0 -6
-4 -9 -8z"/>
<path d="M9040 5208 c0 -9 5 -20 10 -23 13 -8 13 5 0 25 -8 13 -10 13 -10 -2z"/>
<path d="M9587 5199 c4 -13 8 -18 11 -10 2 7 -1 18 -6 23 -8 8 -9 4 -5 -13z"/>
<path d="M12719 5193 c-13 -16 -12 -17 4 -4 16 13 21 21 13 21 -2 0 -10 -8
-17 -17z"/>
<path d="M8960 5174 c0 -14 4 -23 10 -19 6 3 10 15 10 26 0 10 -4 19 -10 19
-5 0 -10 -12 -10 -26z"/>
<path d="M12675 5191 c3 -5 1 -12 -5 -16 -5 -3 -10 -1 -10 6 0 7 -3 10 -6 6
-12 -12 7 -28 20 -18 7 6 17 7 22 3 4 -4 2 1 -5 11 -14 18 -26 24 -16 8z"/>
<path d="M9570 5184 c0 -6 7 -19 16 -30 14 -18 14 -18 3 6 -14 31 -19 36 -19
24z"/>
<path d="M9052 5158 c-7 -7 -12 -16 -12 -21 0 -5 7 -1 16 8 9 9 14 18 12 20
-2 3 -10 -1 -16 -7z"/>
<path d="M9085 5151 c-3 -12 -11 -21 -16 -21 -6 0 -7 -5 -3 -11 4 -8 12 -2 21
15 8 15 12 30 10 33 -3 2 -8 -5 -12 -16z"/>
<path d="M9002 5105 c0 -16 2 -22 5 -12 2 9 2 23 0 30 -3 6 -5 -1 -5 -18z"/>
<path d="M12645 5120 c-4 -6 -10 -8 -15 -5 -4 3 -13 -2 -20 -10 -10 -12 -16
-13 -29 -3 -14 12 -14 11 -2 -5 12 -16 16 -16 31 -2 9 8 19 13 22 10 3 -3 11
1 18 10 7 8 10 15 7 15 -3 0 -9 -5 -12 -10z"/>
<path d="M9051 5103 c-1 -6 -4 -20 -7 -30 -5 -15 -4 -15 5 -3 9 12 11 13 11 1
0 -8 2 -12 5 -9 3 3 1 16 -4 29 -5 13 -10 19 -10 12z"/>
<path d="M9563 5088 c-6 -7 -13 -22 -17 -32 -5 -15 -4 -17 8 -7 7 6 16 21 19
31 6 23 3 25 -10 8z"/>
<path d="M8987 5030 c-4 -17 -2 -18 14 -9 11 5 17 14 14 20 -10 15 -22 10 -28
-11z"/>
<path d="M12495 5031 c-3 -5 -2 -12 3 -15 5 -3 9 1 9 9 0 17 -3 19 -12 6z"/>
<path d="M9016 4994 c-4 -10 -1 -14 6 -12 15 5 23 28 10 28 -5 0 -13 -7 -16
-16z"/>
<path d="M8967 4976 c-4 -10 -7 -25 -6 -34 0 -11 4 -9 10 7 5 13 8 29 6 35 -2
5 -6 2 -10 -8z"/>
<path d="M9507 4959 c4 -13 8 -18 11 -10 2 7 -1 18 -6 23 -8 8 -9 4 -5 -13z"/>
<path d="M8995 4949 c-4 -6 -5 -12 -2 -15 2 -3 7 2 10 11 7 17 1 20 -8 4z"/>
<path d="M9490 4941 c0 -6 4 -13 10 -16 6 -3 7 1 4 9 -7 18 -14 21 -14 7z"/>
<path d="M9006 4925 c-9 -26 -7 -32 5 -12 6 10 9 21 6 23 -2 3 -7 -2 -11 -11z"/>
<path d="M8966 4905 c-9 -26 -7 -32 5 -12 6 10 9 21 6 23 -2 3 -7 -2 -11 -11z"/>
<path d="M8800 4865 c0 -8 4 -15 9 -15 5 0 14 7 21 15 10 13 9 15 -9 15 -12 0
-21 -6 -21 -15z"/>
<path d="M12335 4841 c-3 -5 -2 -12 3 -15 5 -3 9 1 9 9 0 17 -3 19 -12 6z"/>
<path d="M9470 4830 c0 -5 5 -10 10 -10 6 0 10 5 10 10 0 6 -4 10 -10 10 -5 0
-10 -4 -10 -10z"/>
<path d="M9451 4814 c0 -11 3 -14 6 -6 3 7 2 16 -1 19 -3 4 -6 -2 -5 -13z"/>
<path d="M8929 4738 c-7 -25 -7 -48 1 -48 6 0 10 11 10 25 0 20 -7 35 -11 23z"/>
<path d="M8888 4713 c7 -3 16 -2 19 1 4 3 -2 6 -13 5 -11 0 -14 -3 -6 -6z"/>
<path d="M9410 4704 c0 -6 7 -19 16 -30 14 -18 14 -18 3 6 -14 31 -19 36 -19
24z"/>
<path d="M8911 4654 c0 -11 3 -14 6 -6 3 7 2 16 -1 19 -3 4 -6 -2 -5 -13z"/>
<path d="M8886 4623 c-6 -14 -5 -15 5 -6 7 7 10 15 7 18 -3 3 -9 -2 -12 -12z"/>
<path d="M8901 4598 c-1 -9 -8 -24 -17 -33 -9 -9 -14 -18 -11 -21 9 -9 39 44
34 58 -4 9 -6 7 -6 -4z"/>
<path d="M8829 4524 c-5 -15 -7 -29 -4 -32 3 -4 8 4 12 16 3 12 9 22 14 22 5
0 9 5 9 10 0 20 -21 9 -31 -16z"/>
<path d="M8851 4492 c-7 -14 -6 -19 3 -19 6 0 13 9 13 19 1 10 0 18 -2 18 -2
0 -9 -8 -14 -18z"/>
<path d="M9330 4461 c0 -6 4 -13 10 -16 6 -3 7 1 4 9 -7 18 -14 21 -14 7z"/>
<path d="M8826 4445 c-3 -8 -2 -22 1 -32 4 -9 2 -14 -3 -11 -5 3 -9 -10 -10
-29 -1 -49 15 -17 21 42 5 46 2 57 -9 30z"/>
<path d="M9320 4398 c0 -4 4 -8 9 -8 6 0 12 4 15 8 3 5 -1 9 -9 9 -8 0 -15 -4
-15 -9z"/>
<path d="M8750 4256 c0 -8 4 -17 9 -20 5 -4 7 3 4 14 -6 23 -13 26 -13 6z"/>
<path d="M11759 4233 c-13 -16 -12 -17 4 -4 16 13 21 21 13 21 -2 0 -10 -8
-17 -17z"/>
<path d="M11679 4153 c-13 -16 -12 -17 4 -4 16 13 21 21 13 21 -2 0 -10 -8
-17 -17z"/>
<path d="M11599 4073 c-13 -16 -12 -17 4 -4 16 13 21 21 13 21 -2 0 -10 -8
-17 -17z"/>
<path d="M8680 4049 c0 -5 5 -7 10 -4 6 3 10 8 10 11 0 2 -4 4 -10 4 -5 0 -10
-5 -10 -11z"/>
<path d="M8651 4034 c0 -11 3 -14 6 -6 3 7 2 16 -1 19 -3 4 -6 -2 -5 -13z"/>
<path d="M8691 3988 c-1 -12 -6 -15 -18 -11 -15 6 -16 5 -3 -9 13 -14 16 -14
23 -2 5 8 6 20 3 27 -2 7 -5 5 -5 -5z"/>
<path d="M11506 3988 c3 -5 10 -6 15 -3 13 9 11 12 -6 12 -8 0 -12 -4 -9 -9z"/>
<path d="M9170 3940 c6 -11 13 -20 16 -20 2 0 0 9 -6 20 -6 11 -13 20 -16 20
-2 0 0 -9 6 -20z"/>
<path d="M11426 3908 c3 -5 10 -6 15 -3 13 9 11 12 -6 12 -8 0 -12 -4 -9 -9z"/>
<path d="M8572 3790 c0 -14 2 -19 5 -12 2 6 2 18 0 25 -3 6 -5 1 -5 -13z"/>
<path d="M8590 3771 c0 -6 4 -13 10 -16 6 -3 7 1 4 9 -7 18 -14 21 -14 7z"/>
<path d="M8130 3750 c0 -5 7 -10 15 -10 8 0 15 5 15 10 0 6 -7 10 -15 10 -8 0
-15 -4 -15 -10z"/>
<path d="M11266 3748 c3 -5 10 -6 15 -3 13 9 11 12 -6 12 -8 0 -12 -4 -9 -9z"/>
<path d="M8570 3671 c0 -6 4 -13 10 -16 6 -3 7 1 4 9 -7 18 -14 21 -14 7z"/>
<path d="M11170 3675 c0 -7 30 -13 34 -7 3 4 -4 9 -15 9 -10 1 -19 0 -19 -2z"/>
<path d="M9010 3460 c6 -11 13 -20 16 -20 2 0 0 9 -6 20 -6 11 -13 20 -16 20
-2 0 0 -9 6 -20z"/>
<path d="M7606 3427 c3 -10 9 -15 12 -12 3 3 0 11 -7 18 -10 9 -11 8 -5 -6z"/>
<path d="M7690 3346 c41 -46 90 -95 90 -87 0 4 -26 31 -57 61 -32 30 -46 42
-33 26z"/>
<path d="M8405 3279 c-4 -6 -4 -13 -1 -16 3 -4 6 -1 6 6 0 7 5 9 12 5 7 -4 8
-3 4 4 -9 15 -13 15 -21 1z"/>
<path d="M7926 3107 c3 -10 9 -15 12 -12 3 3 0 11 -7 18 -10 9 -11 8 -5 -6z"/>
<path d="M8071 3102 c-13 -24 -15 -89 -3 -96 5 -3 7 13 5 36 -2 22 2 47 8 55
7 7 9 16 6 19 -3 3 -10 -3 -16 -14z"/>
<path d="M8335 2989 c-4 -6 -5 -12 -2 -15 2 -3 7 2 10 11 7 17 1 20 -8 4z"/>
<path d="M8070 2980 c0 -5 5 -10 10 -10 6 0 10 5 10 10 0 6 -4 10 -10 10 -5 0
-10 -4 -10 -10z"/>
<path d="M8090 2956 c0 -2 7 -7 16 -10 8 -3 12 -2 9 4 -6 10 -25 14 -25 6z"/>
<path d="M8170 2480 c0 -5 5 -10 10 -10 6 0 10 5 10 10 0 6 -4 10 -10 10 -5 0
-10 -4 -10 -10z"/>
<path d="M8130 2350 c0 -11 2 -20 4 -20 2 0 6 9 9 20 3 11 1 20 -4 20 -5 0 -9
-9 -9 -20z"/>
<path d="M8090 2240 c0 -5 5 -10 10 -10 6 0 10 5 10 10 0 6 -4 10 -10 10 -5 0
-10 -4 -10 -10z"/>
<path d="M8001 2044 c0 -11 3 -14 6 -6 3 7 2 16 -1 19 -3 4 -6 -2 -5 -13z"/>
<path d="M7731 1164 c0 -11 3 -14 6 -6 3 7 2 16 -1 19 -3 4 -6 -2 -5 -13z"/>
<path d="M7616 843 c-6 -14 -5 -15 5 -6 7 7 10 15 7 18 -3 3 -9 -2 -12 -12z"/>
</g>
</svg>
